<svg width="265" height="772" viewBox="0 0 265 772" version="1.1" xmlns="http://www.w3.org/2000/svg" xmlns:xlink="http://www.w3.org/1999/xlink">
<g id="Canvas" fill="none">
<g id="space-needle">
<g id="Group">
<g id="Vector">
<path d="M 203.948 740.947C 195.375 668.501 163.724 397.151 163.724 325.635C 163.724 251.293 188.277 167.542 193.281 149.188L 199.409 149.188C 199.409 149.188 214.42 149.188 221.441 146.71C 225.397 145.278 231.293 141.793 235.754 138.966L 251.347 138.966L 259.182 122.743L 265 122.743L 265 113.876L 248.088 113.876L 248.088 109.849L 248.166 109.849C 248.166 109.849 232.806 101.64 212.326 96.955C 191.807 92.1537 173.111 87.546 173.111 87.546C 173.111 87.546 167.215 83.4029 171.404 81.041C 175.594 78.7178 180.83 75.7751 180.83 73.4519C 180.83 71.0513 180.83 69.9284 180.83 69.9284L 174.236 69.9284C 172.956 67.1018 170.241 62.6877 164.151 58.4672C 157.557 53.8208 147.86 51.033 142.081 49.794L 142.081 0L 133.431 0L 133.431 49.8327C 127.613 51.033 117.838 53.8208 111.322 58.4672C 105.232 62.6877 102.478 67.1018 101.159 69.8897L 94.6429 69.8897C 94.6429 69.8897 94.6429 71.0125 94.6429 73.4132C 94.6429 75.7751 99.8405 78.7178 104.068 81.0023C 108.335 83.403 102.4 87.546 102.4 87.546C 102.4 87.546 83.627 92.1537 63.2245 96.9162C 42.7444 101.64 27.3456 109.849 27.3456 109.849L 27.3456 113.876L 10.5116 113.876L 10.5116 122.743L 20.0146 122.743L 27.6559 138.966L 39.7578 138.966C 44.2184 141.754 50.1917 145.278 54.0706 146.671C 61.1688 149.227 76.0246 149.227 76.0246 149.227L 80.6404 149.227C 85.1786 172.614 105.853 286.025 98.9871 373.261C 95.4574 418.176 58.4924 674.387 48.7566 740.947L -1.03575e-06 740.947L -1.03575e-06 772L 250.338 772L 250.338 740.947L 203.948 740.947ZM 44.102 128.744L 44.102 119.722L 234.629 119.722L 234.629 128.744L 44.102 128.744ZM 83.9762 740.947C 91.0744 678.491 116.636 448.726 119.816 362.613C 123.152 274.796 105.038 172.808 100.577 149.227L 119.778 149.227C 120.67 167.774 123.734 222.95 126.798 267.013C 130.056 314.329 143.244 658.241 146.502 740.985L 83.9762 740.947ZM 148.946 250.48C 140.064 250.48 137.465 170.988 136.961 149.227L 171.831 149.227C 170.474 161.927 160.466 250.596 148.946 250.48Z" fill="black" fill-opacity="0.05"/>
</g>
</g>
</g>
</g>
</svg>

